# xmcd
#
# Track frame offsets:
#	150
#	14529
#	28550
#	49815
#	69861
#	84168
#	99892
#	119611
#	133581
#	155242
#	170307
#	184416
#	202318
#	218402
#
# Disc length: 3018 seconds
#
# Revision: 1
# Processed by: cddbd v1.4PL0 Copyright (c) Steve Scherf et al.
# Submitted via: audiograbber 1.80
#
DISCID=be0bc80e
DTITLE=Julian Dawson - Spark
DYEAR=1900
DGENRE=
TTITLE0=I Like Your Absence
TTITLE1=Luckiest Man In The Western World
TTITLE2=How Can I Sleep Without You
TTITLE3=No Place Worth Dying For
TTITLE4=Fragile As China
TTITLE5=Cold Cold World
TTITLE6=Two Shots Of Jealousy
TTITLE7=Always There
TTITLE8=We've Been Through The Fire
TTITLE9=I Don't Feel Like  Dancing
TTITLE10=When Love Says Goodnight
TTITLE11=As Real As Disneyland
TTITLE12=Spark Of Human Kindness
TTITLE13=Spark
EXTD=
EXTT0=
EXTT1=
EXTT2=
EXTT3=
EXTT4=
EXTT5=
EXTT6=
EXTT7=
EXTT8=
EXTT9=
EXTT10=
EXTT11=
EXTT12=
EXTT13=
PLAYORDER=
